REM DIRINDEX 1\2,1\3,1\4,1\5
REM DIRNAME cjc004,folder01,folder02,folder03,folder04
TITLE ""
FILE "1Q_t_1039-1048.mp3" MP3
  TRACK 01 AUDIO
    TITLE "3:cjc004_4021"
    INDEX 01 00:00:00
  TRACK 02 AUDIO
    TITLE "0:"
    INDEX 01 00:01:03
  TRACK 03 AUDIO
    TITLE "4:cjc004_4022"
    INDEX 01 00:01:34
  TRACK 04 AUDIO
    TITLE "0:"
    INDEX 01 00:02:45
  TRACK 05 AUDIO
    TITLE "5:cjc004_4023"
    INDEX 01 00:02:69
  TRACK 06 AUDIO
    TITLE "0:"
    INDEX 01 00:07:52
  TRACK 07 AUDIO
    TITLE "3:cjc004_4024"
    INDEX 01 00:08:30
  TRACK 08 AUDIO
    TITLE "0:"
    INDEX 01 00:09:49
  TRACK 09 AUDIO
    TITLE "4:cjc004_4025"
    INDEX 01 00:10:04
  TRACK 10 AUDIO
    TITLE "0:"
    INDEX 01 00:11:25
  TRACK 11 AUDIO
    TITLE "5:cjc004_4026"
    INDEX 01 00:11:50
  TRACK 12 AUDIO
    TITLE "0:"
    INDEX 01 00:15:62
  TRACK 13 AUDIO
    TITLE "3:cjc004_4027"
    INDEX 01 00:16:40
  TRACK 14 AUDIO
    TITLE "0:"
    INDEX 01 00:17:47
  TRACK 15 AUDIO
    TITLE "4:cjc004_4028"
    INDEX 01 00:18:01
  TRACK 16 AUDIO
    TITLE "0:"
    INDEX 01 00:19:15
  TRACK 17 AUDIO
    TITLE "5:cjc004_4029"
    INDEX 01 00:19:38
  TRACK 18 AUDIO
    TITLE "0:"
    INDEX 01 00:24:10
  TRACK 19 AUDIO
    TITLE "3:cjc004_4030"
    INDEX 01 00:24:67
  TRACK 20 AUDIO
    TITLE "0:"
    INDEX 01 00:26:05
  TRACK 21 AUDIO
    TITLE "4:cjc004_4031"
    INDEX 01 00:26:30
  TRACK 22 AUDIO
    TITLE "0:"
    INDEX 01 00:27:63
  TRACK 23 AUDIO
    TITLE "5:cjc004_4032"
    INDEX 01 00:28:13
  TRACK 24 AUDIO
    TITLE "0:"
    INDEX 01 00:32:68
  TRACK 25 AUDIO
    TITLE "3:cjc004_4033"
    INDEX 01 00:33:46
  TRACK 26 AUDIO
    TITLE "0:"
    INDEX 01 00:34:65
  TRACK 27 AUDIO
    TITLE "4:cjc004_4034"
    INDEX 01 00:35:17
  TRACK 28 AUDIO
    TITLE "0:"
    INDEX 01 00:36:33
  TRACK 29 AUDIO
    TITLE "5:cjc004_4035"
    INDEX 01 00:36:58
  TRACK 30 AUDIO
    TITLE "0:"
    INDEX 01 00:41:04
  TRACK 31 AUDIO
    TITLE "3:cjc004_4036"
    INDEX 01 00:41:55
  TRACK 32 AUDIO
    TITLE "0:"
    INDEX 01 00:43:11
  TRACK 33 AUDIO
    TITLE "4:cjc004_4037"
    INDEX 01 00:43:37
  TRACK 34 AUDIO
    TITLE "0:"
    INDEX 01 00:44:50
  TRACK 35 AUDIO
    TITLE "5:cjc004_4038"
    INDEX 01 00:45:00
  TRACK 36 AUDIO
    TITLE "0:"
    INDEX 01 00:50:25
  TRACK 37 AUDIO
    TITLE "3:cjc004_4039"
    INDEX 01 00:51:01
  TRACK 38 AUDIO
    TITLE "0:"
    INDEX 01 00:52:16
  TRACK 39 AUDIO
    TITLE "4:cjc004_4040"
    INDEX 01 00:52:47
  TRACK 40 AUDIO
    TITLE "0:"
    INDEX 01 00:53:58
  TRACK 41 AUDIO
    TITLE "5:cjc004_4041"
    INDEX 01 00:54:07
  TRACK 42 AUDIO
    TITLE "0:"
    INDEX 01 00:59:55
  TRACK 43 AUDIO
    TITLE "3:cjc004_4042"
    INDEX 01 01:00:35
  TRACK 44 AUDIO
    TITLE "0:"
    INDEX 01 01:01:48
  TRACK 45 AUDIO
    TITLE "4:cjc004_4043"
    INDEX 01 01:01:72
  TRACK 46 AUDIO
    TITLE "0:"
    INDEX 01 01:03:10
  TRACK 47 AUDIO
    TITLE "5:cjc004_4044"
    INDEX 01 01:03:39
  TRACK 48 AUDIO
    TITLE "0:"
    INDEX 01 01:07:57
  TRACK 49 AUDIO
    TITLE "3:cjc004_4045"
    INDEX 01 01:08:36
  TRACK 50 AUDIO
    TITLE "0:"
    INDEX 01 01:09:50
  TRACK 51 AUDIO
    TITLE "4:cjc004_4046"
    INDEX 01 01:10:00
  TRACK 52 AUDIO
    TITLE "0:"
    INDEX 01 01:10:65
  TRACK 53 AUDIO
    TITLE "5:cjc004_4047"
    INDEX 01 01:11:13
  TRACK 54 AUDIO
    TITLE "0:"
    INDEX 01 01:16:46
  TRACK 55 AUDIO
    TITLE "3:cjc004_4048"
    INDEX 01 01:17:24
  TRACK 56 AUDIO
    TITLE "0:"
    INDEX 01 01:18:39
  TRACK 57 AUDIO
    TITLE "4:cjc004_4049"
    INDEX 01 01:18:66
  TRACK 58 AUDIO
    TITLE "0:"
    INDEX 01 01:20:02
  TRACK 59 AUDIO
    TITLE "5:cjc004_4050"
    INDEX 01 01:20:26
  TRACK 60 AUDIO
    TITLE "0:"
    INDEX 01 01:25:27
